<?xml version="1.0" encoding="UTF-8" standalone="no"?>
<svg
   xmlns:dc="http://purl.org/dc/elements/1.1/"
   xmlns:cc="http://creativecommons.org/ns#"
   xmlns:rdf="http://www.w3.org/1999/02/22-rdf-syntax-ns#"
   xmlns:svg="http://www.w3.org/2000/svg"
   xmlns="http://www.w3.org/2000/svg"
   xmlns:sodipodi="http://sodipodi.sourceforge.net/DTD/sodipodi-0.dtd"
   xmlns:inkscape="http://www.inkscape.org/namespaces/inkscape"
   id="flag-icon-css-gb"
   viewBox="0 0 640 480"
   version="1.1"
   sodipodi:docname="gb.svg"
   inkscape:version="1.0.2-2 (e86c870879, 2021-01-15)">
  <metadata
     id="metadata17">
    <rdf:RDF>
      <cc:Work
         rdf:about="">
        <dc:format>image/svg+xml</dc:format>
        <dc:type
           rdf:resource="http://purl.org/dc/dcmitype/StillImage" />
      </cc:Work>
    </rdf:RDF>
  </metadata>
  <defs
     id="defs15" />
  <sodipodi:namedview
     pagecolor="#ffffff"
     bordercolor="#666666"
     borderopacity="1"
     objecttolerance="10"
     gridtolerance="10"
     guidetolerance="10"
     inkscape:pageopacity="0"
     inkscape:pageshadow="2"
     inkscape:window-width="1920"
     inkscape:window-height="1027"
     id="namedview13"
     showgrid="false"
     inkscape:zoom="1.628125"
     inkscape:cx="320"
     inkscape:cy="240"
     inkscape:window-x="-8"
     inkscape:window-y="-8"
     inkscape:window-maximized="1"
     inkscape:current-layer="flag-icon-css-gb" />
  <path
     fill="#012169"
     d="M0 0h640v480H0z"
     id="path2"
     style="fill:#1e1e1e;fill-opacity:1" />
  <path
     fill="#FFF"
     d="M75 0l244 181L562 0h78v62L400 241l240 178v61h-80L320 301 81 480H0v-60l239-178L0 64V0h75z"
     id="path4" />
  <path
     fill="#C8102E"
     d="M424 281l216 159v40L369 281h55zm-184 20l6 35L54 480H0l240-179zM640 0v3L391 191l2-44L590 0h50zM0 0l239 176h-60L0 42V0z"
     id="path6"
     style="fill:#434343;fill-opacity:1" />
  <path
     fill="#FFF"
     d="M241 0v480h160V0H241zM0 160v160h640V160H0z"
     id="path8" />
  <path
     fill="#C8102E"
     d="M0 193v96h640v-96H0zM273 0v480h96V0h-96z"
     id="path10"
     style="fill:#424242;fill-opacity:1" />
</svg>
