<?xml version="1.0" encoding="UTF-8" standalone="no"?>
<svg
   xmlns:dc="http://purl.org/dc/elements/1.1/"
   xmlns:cc="http://creativecommons.org/ns#"
   xmlns:rdf="http://www.w3.org/1999/02/22-rdf-syntax-ns#"
   xmlns:svg="http://www.w3.org/2000/svg"
   xmlns="http://www.w3.org/2000/svg"
   xmlns:sodipodi="http://sodipodi.sourceforge.net/DTD/sodipodi-0.dtd"
   xmlns:inkscape="http://www.inkscape.org/namespaces/inkscape"
   viewBox="0 0 384 512"
   version="1.1"
   id="svg4"
   sodipodi:docname="file-cv-fr.svg"
   inkscape:version="1.0.2-2 (e86c870879, 2021-01-15)"
   width="384"
   height="512"
   inkscape:export-filename="C:\Users\kduco\Documents\Git\kevduc.github.io\src\assets\file-cv-fr.png"
   inkscape:export-xdpi="24"
   inkscape:export-ydpi="24">
  <metadata
     id="metadata10">
    <rdf:RDF>
      <cc:Work
         rdf:about="">
        <dc:format>image/svg+xml</dc:format>
        <dc:type
           rdf:resource="http://purl.org/dc/dcmitype/StillImage" />
        <dc:title />
      </cc:Work>
    </rdf:RDF>
  </metadata>
  <defs
     id="defs8" />
  <sodipodi:namedview
     pagecolor="#ffffff"
     bordercolor="#666666"
     borderopacity="1"
     objecttolerance="10"
     gridtolerance="10"
     guidetolerance="10"
     inkscape:pageopacity="0"
     inkscape:pageshadow="2"
     inkscape:window-width="1920"
     inkscape:window-height="1027"
     id="namedview6"
     showgrid="false"
     inkscape:zoom="1"
     inkscape:cx="456.73803"
     inkscape:cy="181.73117"
     inkscape:window-x="1912"
     inkscape:window-y="-8"
     inkscape:window-maximized="1"
     inkscape:current-layer="g8"
     inkscape:document-rotation="0" />
  <!-- Font Awesome Free 5.15.3 by @fontawesome - https://fontawesome.com License - https://fontawesome.com/license/free (Icons: CC BY 4.0, Fonts: SIL OFL 1.1, Code: MIT License) -->
  <path
     d="M 224,130 V 0 H 30 C 16.7,0 0,16.7 0,30 v 452 c 0,13.3 16.7,30 30,30 h 324 c 13.3,0 30,-16.7 30,-30 V 160 H 254 c -13.2,0 -30,-16.8 -30,-30 z m -48,90 c 0,4.42 -3.58,8 -8,8 h -24 c -8.84,0 -16,7.16 -16,16 v 32 c 0,8.84 7.16,16 16,16 h 24 c 4.42,0 8,3.58 8,8 v 16 c 0,4.42 -3.58,8 -8,8 h -24 c -26.51,0 -48,-21.49 -48,-48 v -32 c 0,-26.51 21.49,-48 48,-48 h 24 c 4.42,0 8,3.58 8,8 z m 48,-16 v 20.8 c 0,20.27 5.7,40.17 16,56.88 10.3,-16.7 16,-36.61 16,-56.88 V 204 c 0,-4.42 3.58,-8 8,-8 h 16 c 4.42,0 8,3.58 8,8 v 20.8 c 0,35.48 -12.88,68.89 -36.28,94.09 -3.02,3.25 -7.27,5.11 -11.72,5.11 -4.45,0 -8.7,-1.86 -11.72,-5.11 C 204.88,293.69 192,260.28 192,224.8 V 204 c 0,-4.42 3.58,-8 8,-8 h 16 c 4.42,0 8,3.58 8,8 z M 377,105 279.1,7 C 274.6,2.5 268.5,0 262.1,0 H 256 v 128 h 128 v -6.1 c 0,-6.3 -2.5,-12.4 -7,-16.9 z"
     id="path2"
     sodipodi:nodetypes="scsssssscssssssssssssssssssssscsssssscscsssssccscccsc" />
  <g
     id="g869"
     transform="translate(-173.11623,-57)">
    <g
       id="g1472"
       transform="translate(-385,67.354994)">
      <g
         id="g844"
         transform="matrix(0.26605291,0,0,0.26071278,665.27257,348.21136)">
        <g
           fill-rule="evenodd"
           stroke-width="1pt"
           id="g8">
          <path
             fill="#ffffff"
             d="M 0,0 H 640 V 480 H 0 Z"
             id="path2-4" />
          <path
             fill="#00267f"
             d="M 0,0 H 213.3 V 480 H 0 Z"
             id="path4"
             style="fill:#004cb5;fill-opacity:1" />
          <path
             fill="#f31830"
             d="M 426.7,0 H 640 V 480 H 426.7 Z"
             id="path6" />
        </g>
      </g>
      <rect
         style="fill:#ffffff;fill-opacity:0;stroke:#000000;stroke-width:9.35452;stroke-linecap:round;stroke-linejoin:round;stroke-miterlimit:4;stroke-dasharray:none;stroke-opacity:1;paint-order:stroke fill markers"
         id="rect858"
         width="177.46548"
         height="133.02663"
         x="661.38348"
         y="344.32227"
         ry="19.722237" />
    </g>
  </g>
</svg>
